#!OML:ASF F:\VICON\USERDATA\INSTALL\rory3\rory3.ASF
:FULLY-SPECIFIED
:DEGREES
406
root 15.3438 18.3895 13.2439 195.007 -79.6823 168.333
lowerback 11.0376 -3.06322 3.17674
upperback 0.331357 -3.57045 8.29188
thorax -5.5058 -1.89435 7.61832
lowerneck 7.29164 -18.1473 -12.7717
upperneck 32.5627 -38.0574 13.6459
head 16.0136 -18.0127 1.79946
rclavicle -3.89618e-014 -6.36111e-015
rhumerus -16.5744 -14.2882 -78.4282
rradius 35.3497
rwrist 4.61794
rhand -16.0492 7.66514
rfingers 7.12502
rthumb 10.1527 -22.0699
lclavicle -3.89618e-014 -6.36111e-015
lhumerus -41.9815 11.4592 78.9856
lradius 20.3086
lwrist -12.6794
lhand -13.0477 23.7159
lfingers 7.12502
lthumb 13.0472 53.2878
rfemur 1.0211 10.738 17.1661
rtibia 28.4377
rfoot -6.99885 4.95065
rtoes -4.0157
lfemur -17.6481 4.45114 -24.1122
ltibia 23.9346
lfoot 2.99518 -1.61028
ltoes -20.675
407
root 15.4925 18.3988 13.2223 193.832 -79.5632 169.598
lowerback 11.3358 -3.0046 3.44199
upperback 0.410559 -3.44649 8.32561
thorax -5.61488 -1.84189 7.50637
lowerneck 7.04357 -18.1175 -12.4099
upperneck 32.6329 -37.8271 13.4482
head 15.9028 -17.872 1.73367
rclavicle 2.78299e-014 -2.54444e-014
rhumerus -16.3621 -13.9133 -78.802
rradius 35.7234
rwrist 4.50144
rhand -16.2071 7.61136
rfingers 7.12502
rthumb 10.0003 -22.1311
lclavicle 2.78299e-014 -2.54444e-014
lhumerus -41.5889 10.8981 79.13
lradius 20.457
lwrist -12.1196
lhand -13.4136 24.5273
lfingers 7.12502
lthumb 12.6945 54.1215
rfemur 0.968675 10.3875 17.5721
rtibia 27.6158
rfoot -7.69264 3.80809
rtoes -5.32645
lfemur -18.1476 4.28636 -23.6788
ltibia 23.7348
lfoot 3.68879 -1.55228
ltoes -20.5815
408
root 15.6385 18.4133 13.1992 192.653 -79.6004 170.956
lowerback 11.493 -2.97916 3.77408
upperback 0.466416 -3.36741 8.40205
thorax -5.66558 -1.81488 7.39931
lowerneck 6.57988 -18.0859 -12.0087
upperneck 32.9177 -37.5227 12.9842
head 15.8387 -17.6867 1.55582
rclavicle -1.11319e-014 -9.85972e-014
rhumerus -16.196 -13.3576 -79.1044
rradius 36.094
rwrist 4.24024
rhand -16.5783 7.66906
rfingers 7.12502
rthumb 9.64222 -22.0903
lclavicle -1.11319e-014 -9.85972e-014
lhumerus -41.1624 10.5303 79.1999
lradius 20.5513
lwrist -11.6462
lhand -13.7042 24.3785
lfingers 7.12502
lthumb 12.4144 53.9899
rfemur 0.752855 9.6759 17.9612
rtibia 26.8645
rfoot -8.02545 3.26727
rtoes -5.21911
lfemur -18.7137 3.88956 -23.1601
ltibia 23.498
lfoot 4.42765 -1.45755
ltoes -20.2939
409
root 15.7811 18.4271 13.1746 191.608 -79.6341 172.184
lowerback 11.5526 -2.94996 3.99966
upperback 0.526404 -3.30608 8.52269
thorax -5.64608 -1.79545 7.39582
lowerneck 6.39017 -18.0408 -11.8885
upperneck 33.0163 -37.3291 12.817
head 15.8076 -17.5817 1.5107
rclavicle 1.59028e-014 -6.99722e-014
rhumerus -16.0438 -12.9075 -79.2503
rradius 36.4202
rwrist 4.23442
rhand -16.7875 7.92664
rfingers 7.12502
rthumb 9.44034 -21.8419
lclavicle 1.59028e-014 -6.99722e-014
lhumerus -40.684 10.963 78.8459
lradius 20.3796
lwrist -12.0154
lhand -13.9489 23.9134
lfingers 7.12502
lthumb 12.1784 53.5389
rfemur 0.481305 9.23658 18.3811
rtibia 26.2195
rfoot -8.1403 2.76748
rtoes -4.10784
lfemur -19.2802 3.77732 -22.6942
ltibia 23.2334
lfoot 5.13217 -1.55806
ltoes -19.2186
410
root 15.9238 18.4389 13.1496 191.262 -79.5857 172.734
lowerback 11.5654 -2.90174 4.0659
upperback 0.578396 -3.23959 8.56125
thorax -5.60532 -1.76689 7.38763
lowerneck 6.51132 -17.9561 -11.7751
upperneck 32.7595 -37.1766 13.1017
head 15.6857 -17.5085 1.66161
rclavicle -7.15625e-015 -1.27222e-014
rhumerus -15.9291 -12.6245 -79.4171
rradius 36.756
rwrist 4.22315
rhand -16.9936 8.24558
rfingers 7.12502
rthumb 9.24151 -21.5319
lclavicle -7.15625e-015 -1.27222e-014
lhumerus -40.1487 11.3674 78.44
lradius 20.1842
lwrist -12.8576
lhand -14.2158 24.074
lfingers 7.12502
lthumb 11.921 53.7146
rfemur 0.0898156 8.81203 18.6005
rtibia 25.6597
rfoot -8.31636 2.44714
rtoes -2.72357
lfemur -19.8363 3.66098 -22.3552
ltibia 22.9419
lfoot 5.81194 -1.63495
ltoes -18.283
411
root 16.0671 18.4498 13.1278 190.745 -79.5986 173.458
lowerback 11.6084 -2.88065 4.25621
upperback 0.563522 -3.18167 8.54338
thorax -5.66194 -1.7425 7.25497
lowerneck 6.67782 -17.7991 -11.5404
upperneck 32.6413 -36.9577 13.3109
head 15.5659 -17.4092 1.79595
rclavicle -2.78299e-014 6.67916e-014
rhumerus -16.004 -12.3415 -79.5933
rradius 37.0903
rwrist 4.15951
rhand -17.1219 8.23243
rfingers 7.12502
rthumb 9.11776 -21.5505
lclavicle -2.78299e-014 6.67916e-014
lhumerus -39.7418 11.1529 78.3833
lradius 20.2624
lwrist -13.1307
lhand -14.7382 24.4141
lfingers 7.12502
lthumb 11.4172 54.0832
rfemur -0.390608 8.0665 18.7759
rtibia 25.2288
rfoot -8.59088 2.54605
rtoes -2.84796
lfemur -20.3426 3.34648 -21.9224
ltibia 22.5854
lfoot 6.40309 -1.47166
ltoes -17.1192
412
root 16.2077 18.458 13.1003 189.932 -79.6013 174.402
lowerback 11.6565 -2.79687 4.44148
upperback 0.59088 -3.04647 8.57307
thorax -5.6797 -1.68219 7.16284
lowerneck 6.71957 -17.6397 -11.5405
upperneck 32.6335 -36.8402 13.6049
head 15.6233 -17.3447 1.92578
rclavicle 9.54166e-015 -3.49861e-014
rhumerus -16.0926 -12.1373 -79.6147
rradius 37.34
rwrist 4.23013
rhand -16.9494 8.19707
rfingers 7.12502
rthumb 9.28418 -21.5785
lclavicle 9.54166e-015 -3.49861e-014
lhumerus -39.1986 10.8972 78.3755
lradius 20.4554
lwrist -12.2574
lhand -14.5476 24.0737
lfingers 7.12502
lthumb 11.601 53.7326
rfemur -0.83713 7.8928 19.0952
rtibia 24.9759
rfoot -8.74478 2.43286
rtoes -2.36275
lfemur -20.7188 2.99898 -21.4111
ltibia 22.1594
lfoot 6.77146 -1.27289
ltoes -16.8066
413
root 16.3521 18.4594 13.0666 189.575 -79.6296 174.754
lowerback 11.845 -2.70368 4.35957
upperback 0.670211 -2.92528 8.64977
thorax -5.70312 -1.62275 7.28509
lowerneck 6.80679 -17.5086 -11.6485
upperneck 32.4365 -36.6923 13.9843
head 15.6163 -17.2799 2.11266
rclavicle -2.94201e-014 3.18055e-015
rhumerus -16.1994 -11.9297 -79.5471
rradius 37.6592
rwrist 4.24796
rhand -16.9218 8.48522
rfingers 7.12502
rthumb 9.31079 -21.2892
lclavicle -2.94201e-014 3.18055e-015
lhumerus -38.6338 10.6242 78.5691
lradius 20.7184
lwrist -12.0702
lhand -14.5078 23.9422
lfingers 7.12502
lthumb 11.6395 53.5989
rfemur -1.18962 7.90028 19.358
rtibia 24.8255
rfoot -8.83213 2.26972
rtoes -1.26973
lfemur -20.9314 2.70934 -21.0054
ltibia 21.7281
lfoot 6.9133 -1.26289
ltoes -18.8064
414
root 16.4966 18.4525 13.0358 189.874 -79.6635 174.404
lowerback 12.0956 -2.70943 4.14308
upperback 0.768206 -2.9486 8.66205
thorax -5.72511 -1.62986 7.44019
lowerneck 6.69561 -17.3391 -11.5359
upperneck 32.3772 -36.3657 14.0888
head 15.5477 -17.1229 2.2028
rclavicle -7.71285e-014 3.18055e-015
rhumerus -16.2521 -11.3335 -79.6531
rradius 37.9769
rwrist 3.8763
rhand -16.8637 8.48593
rfingers 7.12502
rthumb 9.36685 -21.2859
lclavicle -7.71285e-014 3.18055e-015
lhumerus -38.125 11.0612 78.297
lradius 20.8734
lwrist -12.9402
lhand -14.7936 24.1969
lfingers 7.12502
lthumb 11.3638 53.869
rfemur -1.57176 7.38285 19.3761
rtibia 24.7593
rfoot -9.18026 2.55572
rtoes -0.828354
lfemur -21.0272 2.30302 -20.712
ltibia 21.3032
lfoot 6.84487 -1.03221
ltoes -20.1112
415
root 16.6232 18.4503 13.0092 189.998 -79.5297 174.24
lowerback 12.1202 -2.66967 4.03841
upperback 0.868 -2.91744 8.59294
thorax -5.63354 -1.61316 7.41281
lowerneck 6.51805 -17.1531 -11.275
upperneck 32.5996 -36.0348 13.9348
head 15.5277 -16.9563 2.1778
rclavicle -6.67916e-014 6.36111e-015
rhumerus -16.4544 -10.8735 -79.7825
rradius 38.2304
rwrist 3.49497
rhand -17.1233 8.62818
rfingers 7.12502
rthumb 9.11633 -21.1548
lclavicle -6.67916e-014 6.36111e-015
lhumerus -37.7119 12.0186 77.5667
lradius 20.9072
lwrist -14.6408
lhand -15.1903 24.3642
lfingers 7.12502
lthumb 10.9812 54.057
rfemur -2.02104 6.9905 19.3486
rtibia 24.8152
rfoot -9.67465 2.93901
rtoes -0.0551133
lfemur -20.9865 1.84372 -20.3827
ltibia 20.8622
lfoot 6.37843 -0.518143
ltoes -20.1801
